<svg width="24" height="24" viewBox="0 0 24 24" fill="none" xmlns="http://www.w3.org/2000/svg">
<path d="M22.3201 5.29468L18.1068 2.78685L11.247 13.1429L15.4576 15.6482L18.8889 10.4715L22.3201 5.29468ZM10.6045 16.3273L10.5114 18.6802L12.7085 17.5784L14.7517 16.5564L12.7202 15.3466L10.6888 14.1368L10.6045 16.3273ZM23.4443 1.48472L21.242 0.171883C20.9756 0.0134859 20.6538 -0.0381637 20.3473 0.0282902C20.0408 0.094744 19.7747 0.273861 19.6075 0.526259L18.738 1.83498L22.9487 4.34199L23.8181 3.03491C24.1659 2.50747 24.0007 1.81273 23.4443 1.48308V1.48472ZM19.997 21.1155C19.997 21.3422 19.8013 21.5276 19.5622 21.5276H3.04302C2.92772 21.5276 2.81715 21.4842 2.73562 21.4069C2.6541 21.3296 2.6083 21.2248 2.6083 21.1155V5.45704C2.6083 5.34775 2.6541 5.24294 2.73562 5.16566C2.81715 5.08839 2.92772 5.04497 3.04302 5.04497H14.5578L16.1958 2.57258H3.04302C1.36501 2.57258 0 3.86646 0 5.45704V21.1155C0 22.7061 1.36501 24 3.04302 24H19.5622C21.2402 24 22.6053 22.7061 22.6053 21.1155V7.95992L19.997 11.896V21.118V21.1155Z" fill="#FFCC80"/>
</svg>
